<svg id="visual" viewBox="0 0 900 600" width="900" height="600" xmlns="http://www.w3.org/2000/svg" xmlns:xlink="http://www.w3.org/1999/xlink" version="1.1"><rect x="0" y="0" width="900" height="600" fill="#025883"></rect><path d="M461 600L470.8 580C480.7 560 500.3 520 525.5 480C550.7 440 581.3 400 617.2 360C653 320 694 280 707.2 240C720.3 200 705.7 160 687.2 120C668.7 80 646.3 40 635.2 20L624 0L900 0L900 20C900 40 900 80 900 120C900 160 900 200 900 240C900 280 900 320 900 360C900 400 900 440 900 480C900 520 900 560 900 580L900 600Z" fill="#0e79b2" stroke-linecap="round" stroke-linejoin="miter"></path></svg>